<svg xmlns="http://www.w3.org/2000/svg" width="28" height="28" viewBox="0 0 28 28">
    <g fill="none" fill-rule="evenodd">
        <g fill="#D4D4D4">
            <g>
                <path d="M4.096 4.096c-5.461 5.461-5.461 14.349 0 19.81 5.46 5.46 14.348 5.46 19.808 0 5.461-5.461 5.461-14.349 0-19.81-5.46-5.461-14.346-5.461-19.808 0zm15.5 5.224l-4.454 4.453 4.453 4.453c.379.379.379.992 0 1.37-.378.379-.991.379-1.37 0l-4.453-4.453-4.453 4.453c-.378.379-.991.379-1.37 0-.378-.378-.378-.991 0-1.37l4.453-4.453L7.95 9.32c-.378-.379-.378-.992 0-1.37.379-.379.992-.379 1.37 0l4.453 4.453 4.453-4.453c.379-.379.992-.379 1.37 0 .379.378.379.991 0 1.37z" transform="translate(-1382 -657) translate(512 633) translate(870 24)"/>
            </g>
        </g>
    </g>
</svg>
