<svg xmlns="http://www.w3.org/2000/svg" width="34" height="41" viewBox="0 0 34 41">
    <g fill="none" fill-rule="evenodd">
        <g fill="#FFF">
            <g>
                <g>
                    <path d="M5.326 21.507L8.061 21.507 9.492 24.461 10.874 21.507 13.578 21.507 11.081 26.158 13.82 31.111 11.025 31.111 9.443 28.026 7.85 31.111 5.076 31.111 7.85 26.105zM14.617 21.507L17.102 21.507 17.102 28.741 20.974 28.741 20.974 31.111 14.617 31.111zM21.677 27.934l2.365-.178c.052.46.154.81.312 1.052.255.39.619.584 1.091.584.352 0 .624-.099.816-.298.191-.2.285-.43.285-.692 0-.249-.09-.472-.272-.668-.18-.196-.603-.381-1.269-.557-1.087-.293-1.864-.681-2.327-1.167-.467-.485-.702-1.104-.702-1.855 0-.494.12-.961.36-1.4.239-.44.598-.786 1.079-1.037.48-.25 1.139-.376 1.975-.376 1.028 0 1.81.228 2.349.685.538.456.86 1.184.962 2.18l-2.344.164c-.062-.433-.194-.746-.392-.942-.199-.196-.474-.295-.825-.295-.289 0-.506.073-.651.22-.146.146-.22.325-.22.535 0 .153.06.29.182.412.117.126.395.246.833.355 1.085.279 1.863.562 2.331.848.469.286.811.64 1.025 1.065.214.424.32.898.32 1.423 0 .616-.142 1.184-.428 1.703-.284.52-.682.915-1.194 1.183-.511.269-1.156.402-1.932.402-1.367 0-2.313-.315-2.838-.944-.525-.632-.823-1.431-.891-2.402z" transform="translate(-441 -611) translate(420 593) translate(21 18)"/>
                    <path d="M31.645 10.62l-8.576-8.31C21.848 1.128 19.556.201 17.851.201H3.857c-2.09 0-3.79 1.694-3.79 3.776v33.082c0 2.082 1.7 3.774 3.788 3.774h26.192c2.09 0 3.788-1.693 3.788-3.774l.002-21.266c0-1.737-.942-3.962-2.192-5.173zm-1.762 1.804c.305.295.595.735.836 1.222h-9.485c-.696 0-1.262-.564-1.262-1.258l-.002-9.125c.532.242 1.016.542 1.337.853l8.576 8.308zm.166 25.893H3.857c-.696 0-1.262-.564-1.262-1.258L2.593 3.977c0-.694.566-1.258 1.262-1.258h13.587v9.67c0 2.083 1.7 3.775 3.788 3.775h10.08v20.895c.001.693-.565 1.258-1.26 1.258h-.001z" transform="translate(-441 -611) translate(420 593) translate(21 18)"/>
                </g>
            </g>
        </g>
    </g>
</svg>
