<svg xmlns="http://www.w3.org/2000/svg" width="40" height="40" viewBox="0 0 40 40">
    <g fill="none" fill-rule="evenodd">
        <g fill="#05C3A7">
            <g>
                <path d="M957.456 54.536l-7.464-7.386c5.665-7.056 5.132-17.436-1.333-23.89-3.4-3.396-7.865-5.26-12.663-5.26s-9.331 1.864-12.732 5.257C919.867 26.652 918 31.11 918 35.969c0 4.86 1.867 9.318 5.264 12.713 3.4 3.328 7.866 5.257 12.732 5.257 4.066 0 8.066-1.399 11.198-3.926l7.399 7.39c.401.4.867.597 1.4.597.534 0 1.068-.2 1.401-.598.797-.8.797-2.064.063-2.865zm-7.464-18.567c0 3.728-1.466 7.253-4.132 9.85-2.666 2.595-6.13 4.127-9.864 4.127-3.734 0-7.264-1.464-9.865-4.126-2.599-2.662-4.132-6.122-4.132-9.85 0-3.729 1.466-7.254 4.132-9.851 2.666-2.595 6.066-4.126 9.865-4.126 3.733 0 7.263 1.464 9.864 4.126 2.599 2.662 4.132 6.057 4.132 9.85z" transform="translate(-1430 -611) translate(512 593)"/>
            </g>
        </g>
    </g>
</svg>
