<svg xmlns="http://www.w3.org/2000/svg" width="6" height="10" viewBox="0 0 6 10">
    <g fill="none" fill-rule="evenodd">
        <g fill="#B4B4B4">
            <g>
                <g>
                    <path d="M.639 10c-.158 0-.328-.053-.452-.169-.25-.231-.25-.6 0-.831l4.286-4.002-4.286-3.99c-.25-.232-.25-.601 0-.833.248-.232.644-.232.893-.01l4.739 4.412c.124.116.181.263.181.421 0 .158-.068.305-.181.421l-4.74 4.412C.956 9.947.798 10 .64 10z" transform="translate(-837 -1014) translate(780 999) translate(57 15) matrix(-1 0 0 1 6 0)"/>
                </g>
            </g>
        </g>
    </g>
</svg>
